<mxfile host="app.diagrams.net" modified="2023-03-01T17:29:16.237Z" agent="5.0 (Windows NT 10.0; Win64; x64) AppleWebKit/537.36 (KHTML, like Gecko) Chrome/110.0.0.0 Safari/537.36" etag="WpFk2LCV6W7utBnfbR40" version="20.8.23" type="github">
  <diagram name="페이지-1" id="msyBREApRk5ewarSgFPn">
    <mxGraphModel dx="2074" dy="1162" grid="1" gridSize="10" guides="1" tooltips="1" connect="1" arrows="1" fold="1" page="1" pageScale="1" pageWidth="827" pageHeight="1169" math="0" shadow="0">
      <root>
        <mxCell id="0" />
        <mxCell id="1" parent="0" />
        <mxCell id="K_idk3_DBZk5D8gX7ZlE-1" value="이용자" style="shape=umlActor;verticalLabelPosition=bottom;verticalAlign=top;html=1;" vertex="1" parent="1">
          <mxGeometry x="50" y="430" width="30" height="60" as="geometry" />
        </mxCell>
        <mxCell id="K_idk3_DBZk5D8gX7ZlE-2" value="게시판 서비스" style="shape=umlFrame;whiteSpace=wrap;html=1;pointerEvents=0;width=100;height=20;" vertex="1" parent="1">
          <mxGeometry x="150" y="280" width="590" height="590" as="geometry" />
        </mxCell>
        <mxCell id="K_idk3_DBZk5D8gX7ZlE-17" style="rounded=0;orthogonalLoop=1;jettySize=auto;html=1;exitX=0;exitY=0.5;exitDx=0;exitDy=0;entryX=1;entryY=0.3333333333333333;entryDx=0;entryDy=0;entryPerimeter=0;endArrow=none;endFill=0;" edge="1" parent="1" source="K_idk3_DBZk5D8gX7ZlE-3" target="K_idk3_DBZk5D8gX7ZlE-1">
          <mxGeometry relative="1" as="geometry" />
        </mxCell>
        <mxCell id="K_idk3_DBZk5D8gX7ZlE-3" value="회원 가입" style="rounded=1;whiteSpace=wrap;html=1;arcSize=40;fontColor=#000000;fillColor=#ffffc0;strokeColor=#ff0000;" vertex="1" parent="1">
          <mxGeometry x="220" y="430" width="120" height="40" as="geometry" />
        </mxCell>
        <mxCell id="K_idk3_DBZk5D8gX7ZlE-19" style="edgeStyle=none;rounded=0;orthogonalLoop=1;jettySize=auto;html=1;exitX=0;exitY=0.5;exitDx=0;exitDy=0;endArrow=none;endFill=0;" edge="1" parent="1" source="K_idk3_DBZk5D8gX7ZlE-5">
          <mxGeometry relative="1" as="geometry">
            <mxPoint x="80" y="450" as="targetPoint" />
          </mxGeometry>
        </mxCell>
        <mxCell id="K_idk3_DBZk5D8gX7ZlE-23" style="edgeStyle=none;rounded=0;orthogonalLoop=1;jettySize=auto;html=1;exitX=1;exitY=0.5;exitDx=0;exitDy=0;entryX=0.5;entryY=1;entryDx=0;entryDy=0;dashed=1;endArrow=classic;endFill=1;" edge="1" parent="1" source="K_idk3_DBZk5D8gX7ZlE-5" target="K_idk3_DBZk5D8gX7ZlE-7">
          <mxGeometry relative="1" as="geometry" />
        </mxCell>
        <mxCell id="K_idk3_DBZk5D8gX7ZlE-5" value="게시판 보기" style="rounded=1;whiteSpace=wrap;html=1;arcSize=40;fontColor=#000000;fillColor=#ffffc0;strokeColor=#ff0000;" vertex="1" parent="1">
          <mxGeometry x="210" y="565" width="120" height="40" as="geometry" />
        </mxCell>
        <mxCell id="K_idk3_DBZk5D8gX7ZlE-20" style="edgeStyle=none;rounded=0;orthogonalLoop=1;jettySize=auto;html=1;exitX=0;exitY=0.5;exitDx=0;exitDy=0;entryX=1;entryY=0.3333333333333333;entryDx=0;entryDy=0;entryPerimeter=0;endArrow=none;endFill=0;" edge="1" parent="1" source="K_idk3_DBZk5D8gX7ZlE-6" target="K_idk3_DBZk5D8gX7ZlE-1">
          <mxGeometry relative="1" as="geometry" />
        </mxCell>
        <mxCell id="K_idk3_DBZk5D8gX7ZlE-24" style="edgeStyle=none;rounded=0;orthogonalLoop=1;jettySize=auto;html=1;exitX=1;exitY=0.25;exitDx=0;exitDy=0;dashed=1;endArrow=classic;endFill=1;" edge="1" parent="1" source="K_idk3_DBZk5D8gX7ZlE-6">
          <mxGeometry relative="1" as="geometry">
            <mxPoint x="400" y="350" as="targetPoint" />
          </mxGeometry>
        </mxCell>
        <mxCell id="K_idk3_DBZk5D8gX7ZlE-6" value="게시글 보기" style="rounded=1;whiteSpace=wrap;html=1;arcSize=40;fontColor=#000000;fillColor=#ffffc0;strokeColor=#ff0000;" vertex="1" parent="1">
          <mxGeometry x="210" y="710" width="120" height="40" as="geometry" />
        </mxCell>
        <mxCell id="K_idk3_DBZk5D8gX7ZlE-18" style="edgeStyle=none;rounded=0;orthogonalLoop=1;jettySize=auto;html=1;exitX=0;exitY=0.5;exitDx=0;exitDy=0;endArrow=none;endFill=0;" edge="1" parent="1" source="K_idk3_DBZk5D8gX7ZlE-7">
          <mxGeometry relative="1" as="geometry">
            <mxPoint x="80" y="450" as="targetPoint" />
          </mxGeometry>
        </mxCell>
        <mxCell id="K_idk3_DBZk5D8gX7ZlE-21" value="&amp;lt;&amp;lt;include&amp;gt;&amp;gt;" style="edgeStyle=none;rounded=0;orthogonalLoop=1;jettySize=auto;html=1;exitX=1;exitY=0.5;exitDx=0;exitDy=0;entryX=0;entryY=0.5;entryDx=0;entryDy=0;endArrow=classic;endFill=1;dashed=1;" edge="1" parent="1" source="K_idk3_DBZk5D8gX7ZlE-7" target="K_idk3_DBZk5D8gX7ZlE-8">
          <mxGeometry relative="1" as="geometry" />
        </mxCell>
        <mxCell id="K_idk3_DBZk5D8gX7ZlE-7" value="회원 로그인" style="rounded=1;whiteSpace=wrap;html=1;arcSize=40;fontColor=#000000;fillColor=#ffffc0;strokeColor=#ff0000;" vertex="1" parent="1">
          <mxGeometry x="340" y="310" width="120" height="40" as="geometry" />
        </mxCell>
        <mxCell id="K_idk3_DBZk5D8gX7ZlE-8" value="인증" style="rounded=1;whiteSpace=wrap;html=1;arcSize=40;fontColor=#000000;fillColor=#ffffc0;strokeColor=#ff0000;" vertex="1" parent="1">
          <mxGeometry x="550" y="310" width="120" height="40" as="geometry" />
        </mxCell>
        <mxCell id="K_idk3_DBZk5D8gX7ZlE-22" value="&amp;lt;&amp;lt;extend&amp;gt;&amp;gt;" style="edgeStyle=none;rounded=0;orthogonalLoop=1;jettySize=auto;html=1;exitX=0;exitY=0.5;exitDx=0;exitDy=0;endArrow=classic;endFill=1;dashed=1;" edge="1" parent="1" source="K_idk3_DBZk5D8gX7ZlE-9">
          <mxGeometry relative="1" as="geometry">
            <mxPoint x="460" y="330" as="targetPoint" />
          </mxGeometry>
        </mxCell>
        <mxCell id="K_idk3_DBZk5D8gX7ZlE-9" value="로그인 실패" style="rounded=1;whiteSpace=wrap;html=1;arcSize=40;fontColor=#000000;fillColor=#ffffc0;strokeColor=#ff0000;" vertex="1" parent="1">
          <mxGeometry x="550" y="400" width="120" height="40" as="geometry" />
        </mxCell>
        <mxCell id="K_idk3_DBZk5D8gX7ZlE-27" style="edgeStyle=none;rounded=0;orthogonalLoop=1;jettySize=auto;html=1;exitX=0;exitY=0.5;exitDx=0;exitDy=0;dashed=1;endArrow=classic;endFill=1;entryX=1;entryY=0.5;entryDx=0;entryDy=0;" edge="1" parent="1" source="K_idk3_DBZk5D8gX7ZlE-10" target="K_idk3_DBZk5D8gX7ZlE-5">
          <mxGeometry relative="1" as="geometry">
            <mxPoint x="330" y="590" as="targetPoint" />
          </mxGeometry>
        </mxCell>
        <mxCell id="K_idk3_DBZk5D8gX7ZlE-10" value="게시판 검색" style="rounded=1;whiteSpace=wrap;html=1;arcSize=40;fontColor=#000000;fillColor=#ffffc0;strokeColor=#ff0000;" vertex="1" parent="1">
          <mxGeometry x="430" y="610" width="120" height="40" as="geometry" />
        </mxCell>
        <mxCell id="K_idk3_DBZk5D8gX7ZlE-26" style="edgeStyle=none;rounded=0;orthogonalLoop=1;jettySize=auto;html=1;exitX=0;exitY=0.5;exitDx=0;exitDy=0;entryX=1;entryY=0.5;entryDx=0;entryDy=0;dashed=1;endArrow=classic;endFill=1;" edge="1" parent="1" source="K_idk3_DBZk5D8gX7ZlE-11" target="K_idk3_DBZk5D8gX7ZlE-5">
          <mxGeometry relative="1" as="geometry" />
        </mxCell>
        <mxCell id="K_idk3_DBZk5D8gX7ZlE-11" value="게시판 정렬" style="rounded=1;whiteSpace=wrap;html=1;arcSize=40;fontColor=#000000;fillColor=#ffffc0;strokeColor=#ff0000;" vertex="1" parent="1">
          <mxGeometry x="430" y="510" width="120" height="40" as="geometry" />
        </mxCell>
        <mxCell id="K_idk3_DBZk5D8gX7ZlE-28" style="edgeStyle=none;rounded=0;orthogonalLoop=1;jettySize=auto;html=1;exitX=0;exitY=0.5;exitDx=0;exitDy=0;entryX=1;entryY=0.5;entryDx=0;entryDy=0;dashed=1;endArrow=classic;endFill=1;" edge="1" parent="1" source="K_idk3_DBZk5D8gX7ZlE-12" target="K_idk3_DBZk5D8gX7ZlE-6">
          <mxGeometry relative="1" as="geometry" />
        </mxCell>
        <mxCell id="K_idk3_DBZk5D8gX7ZlE-12" value="게시글 쓰기,수정,삭제" style="rounded=1;whiteSpace=wrap;html=1;arcSize=40;fontColor=#000000;fillColor=#ffffc0;strokeColor=#ff0000;" vertex="1" parent="1">
          <mxGeometry x="430" y="710" width="135" height="40" as="geometry" />
        </mxCell>
        <mxCell id="K_idk3_DBZk5D8gX7ZlE-29" style="edgeStyle=none;rounded=0;orthogonalLoop=1;jettySize=auto;html=1;exitX=0;exitY=0.5;exitDx=0;exitDy=0;dashed=1;endArrow=classic;endFill=1;" edge="1" parent="1" source="K_idk3_DBZk5D8gX7ZlE-13">
          <mxGeometry relative="1" as="geometry">
            <mxPoint x="330" y="730" as="targetPoint" />
          </mxGeometry>
        </mxCell>
        <mxCell id="K_idk3_DBZk5D8gX7ZlE-13" value="댓글 보기,쓰기,&lt;br&gt;수정,삭제" style="rounded=1;whiteSpace=wrap;html=1;arcSize=40;fontColor=#000000;fillColor=#ffffc0;strokeColor=#ff0000;" vertex="1" parent="1">
          <mxGeometry x="430" y="790" width="135" height="40" as="geometry" />
        </mxCell>
      </root>
    </mxGraphModel>
  </diagram>
</mxfile>
